<?xml version="1.0" standalone="no"?>
<!DOCTYPE svg PUBLIC "-//W3C//DTD SVG 20010904//EN"
 "http://www.w3.org/TR/2001/REC-SVG-20010904/DTD/svg10.dtd">
<svg version="1.0" xmlns="http://www.w3.org/2000/svg"
 width="1200.000000pt" height="1200.000000pt" viewBox="0 0 1200.000000 1200.000000"
 preserveAspectRatio="xMidYMid meet">

<g transform="translate(0.000000,1200.000000) scale(0.100000,-0.100000)"
fill="#000000" stroke="none">
<path d="M5945 8701 c-47 -20 -161 -159 -259 -316 -30 -48 -57 -92 -59 -98 -2
-6 -36 11 -76 36 -104 68 -206 117 -241 117 -42 0 -94 -23 -114 -51 -24 -35
-73 -194 -93 -305 l-18 -96 -40 7 c-100 17 -176 24 -254 25 -96 0 -140 -19
-168 -73 -31 -60 -4 -344 50 -533 l22 -79 65 -8 c36 -5 109 -16 162 -26 l97
-18 6 46 c26 195 76 424 106 483 24 47 69 79 117 81 47 1 120 -39 249 -140 52
-41 97 -73 99 -71 1 2 21 44 44 93 88 191 241 433 293 465 41 25 93 25 135 0
45 -28 155 -199 254 -395 44 -88 82 -162 84 -164 2 -3 19 9 37 26 49 47 186
143 241 169 55 26 93 23 139 -8 36 -26 59 -74 85 -180 18 -69 72 -373 72 -398
0 -4 44 1 98 11 53 10 126 21 162 26 l64 8 28 105 c32 121 58 299 58 403 0 86
-20 132 -71 159 -49 26 -182 24 -365 -7 l-40 -7 -22 109 c-25 128 -64 258 -88
292 -20 28 -72 51 -114 51 -35 0 -143 -52 -244 -117 -74 -48 -71 -48 -103 12
-52 97 -215 314 -262 350 -27 20 -105 30 -136 16z"/>
<path d="M5953 8003 c-217 -339 -350 -702 -387 -1056 l-6 -58 47 7 c64 10 701
11 782 1 l63 -8 -7 53 c-36 290 -104 521 -230 783 -51 107 -173 316 -199 343
-11 11 -22 0 -63 -65z"/>
<path d="M5216 7583 c-28 -120 -56 -282 -56 -329 0 -27 5 -32 38 -42 20 -7 80
-34 133 -60 l96 -49 12 66 c6 36 28 124 48 195 l37 129 -30 24 c-84 70 -232
173 -247 173 -3 0 -17 -48 -31 -107z"/>
<path d="M6700 7672 c-67 -44 -178 -128 -207 -154 l-31 -30 14 -47 c23 -72 62
-220 74 -281 l10 -55 98 47 c53 27 114 54 135 60 l38 12 -6 50 c-25 187 -73
408 -90 412 -5 2 -21 -5 -35 -14z"/>
<path d="M4815 7083 c39 -68 93 -139 158 -207 45 -48 60 -58 79 -53 13 4 84
16 158 27 74 11 150 23 168 26 19 3 32 11 32 19 0 28 -170 117 -324 170 -64
22 -257 65 -289 65 -5 0 3 -21 18 -47z"/>
<path d="M7100 7109 c-140 -28 -275 -74 -386 -133 -72 -39 -100 -58 -102 -74
-4 -24 -15 -21 173 -51 72 -12 143 -24 158 -27 25 -6 35 0 79 47 86 91 205
261 181 258 -5 0 -51 -9 -103 -20z"/>
<path d="M1930 5760 c0 -5 18 -10 40 -10 l40 0 -2 -467 -3 -468 -37 -3 c-21
-2 -38 -7 -38 -13 0 -5 76 -9 185 -9 117 0 185 4 185 10 0 6 -11 10 -25 10
l-25 0 0 208 c0 114 5 224 10 244 15 53 56 98 89 98 50 0 51 -5 51 -287 l0
-263 -25 0 c-14 0 -25 -4 -25 -10 0 -6 68 -10 185 -10 117 0 185 4 185 10 0 6
-15 10 -34 10 l-34 0 -4 238 c-4 261 -9 286 -66 334 -17 14 -55 31 -84 37 -97
21 -177 -7 -225 -78 l-23 -34 0 232 0 231 -160 0 c-100 0 -160 -4 -160 -10z"/>
<path d="M7880 5760 c0 -5 18 -10 40 -10 l40 0 -2 -467 -3 -468 -37 -3 c-21
-2 -38 -7 -38 -13 0 -5 80 -9 195 -9 123 0 195 4 195 10 0 6 -16 10 -35 10
l-35 0 0 480 0 480 -160 0 c-100 0 -160 -4 -160 -10z"/>
<path d="M8390 5760 c0 -5 18 -10 40 -10 l40 0 -2 -467 -3 -468 -37 -3 c-21
-2 -38 -7 -38 -13 0 -5 80 -9 195 -9 123 0 195 4 195 10 0 6 -16 10 -35 10
l-35 0 0 480 0 480 -160 0 c-100 0 -160 -4 -160 -10z"/>
<path d="M2982 5739 c-62 -19 -92 -112 -57 -179 18 -35 38 -47 85 -50 67 -5
90 0 120 28 55 48 51 149 -6 187 -31 20 -100 27 -142 14z"/>
<path d="M1292 5701 c-70 -24 -118 -65 -156 -131 -28 -50 -31 -63 -31 -140 1
-164 62 -229 287 -301 183 -59 228 -96 228 -187 0 -116 -143 -172 -274 -108
-62 30 -137 107 -192 196 -20 33 -41 60 -47 60 -10 0 -1 -299 9 -309 2 -3 14
5 25 18 12 12 28 20 37 17 137 -41 333 -45 412 -9 57 26 117 85 144 143 31 66
30 218 -1 276 -44 82 -111 123 -276 170 -166 46 -223 89 -221 166 2 77 64 128
156 128 31 0 68 -4 82 -10 41 -15 115 -89 168 -168 27 -41 52 -71 55 -68 7 7
4 247 -4 258 -3 5 -13 2 -23 -7 -18 -16 -25 -16 -108 4 -109 26 -200 26 -270
2z"/>
<path d="M4680 5695 c0 -11 12 -15 50 -15 l50 0 0 -382 c0 -211 -5 -401 -10
-423 -16 -68 -73 -95 -120 -57 -30 24 -20 62 16 62 50 0 61 95 15 141 -25 24
-38 29 -80 29 -61 0 -98 -27 -111 -83 -26 -120 79 -196 258 -185 131 8 210 55
254 152 22 50 23 60 26 398 l3 347 37 3 c20 2 36 8 35 13 -2 6 -84 11 -213 13
-182 2 -210 0 -210 -13z"/>
<path d="M5480 5417 c-76 -18 -129 -48 -174 -97 -59 -65 -70 -101 -71 -216 0
-96 2 -104 35 -169 58 -112 141 -155 303 -155 128 0 191 31 245 120 33 55 40
80 22 80 -5 0 -17 -17 -25 -37 -33 -79 -98 -123 -180 -123 -60 0 -98 21 -119
65 -20 41 -36 130 -36 198 l0 47 186 0 187 0 -5 63 c-9 106 -69 189 -156 215
-62 18 -154 22 -212 9z m115 -37 c14 -16 19 -42 23 -126 l5 -105 -69 3 -69 3
-3 47 c-4 63 14 157 35 180 21 24 55 23 78 -2z"/>
<path d="M7360 5417 c-76 -18 -129 -48 -174 -97 -59 -65 -70 -101 -71 -216 0
-96 2 -104 35 -169 58 -112 141 -155 303 -155 128 0 191 31 245 120 33 55 40
80 22 80 -5 0 -17 -17 -25 -37 -33 -79 -98 -123 -180 -123 -60 0 -98 21 -119
65 -20 41 -36 130 -36 198 l0 47 186 0 187 0 -5 63 c-9 106 -69 189 -156 215
-62 18 -154 22 -212 9z m115 -37 c14 -16 19 -42 23 -126 l5 -105 -69 3 -69 3
-3 47 c-4 63 14 157 35 180 21 24 55 23 78 -2z"/>
<path d="M9160 5417 c-76 -18 -129 -48 -174 -97 -59 -65 -70 -101 -71 -216 0
-96 2 -104 35 -169 58 -112 141 -155 303 -155 128 0 191 31 245 120 33 55 40
80 22 80 -5 0 -17 -17 -25 -37 -33 -79 -98 -123 -180 -123 -60 0 -98 21 -119
65 -20 41 -36 130 -36 198 l0 47 186 0 187 0 -5 63 c-9 106 -69 189 -156 215
-62 18 -154 22 -212 9z m115 -37 c14 -16 19 -42 23 -126 l5 -105 -69 3 -69 3
-3 47 c-4 63 14 157 35 180 21 24 55 23 78 -2z"/>
<path d="M10131 5420 c-42 -10 -80 -37 -108 -80 l-23 -33 0 52 0 51 -160 0
c-100 0 -160 -4 -160 -10 0 -5 18 -10 40 -10 l40 0 -2 -287 -3 -288 -37 -3
c-21 -2 -38 -7 -38 -13 0 -5 84 -9 205 -9 130 0 205 4 205 10 0 6 -21 10 -46
10 l-45 0 3 223 c3 207 5 225 25 264 38 70 95 102 123 68 18 -22 3 -55 -25
-55 -32 0 -44 -54 -21 -98 30 -58 129 -67 176 -17 29 30 39 125 18 164 -28 52
-98 77 -167 61z"/>
<path d="M10620 5421 c-87 -19 -152 -80 -169 -161 -30 -141 34 -220 224 -271
100 -27 133 -43 147 -74 14 -32 -5 -78 -38 -94 -34 -15 -148 -14 -187 2 -43
19 -100 84 -122 140 -10 26 -22 47 -26 47 -5 0 -9 -52 -9 -115 0 -63 3 -115 6
-115 3 0 19 11 35 24 l29 25 48 -22 c69 -32 219 -32 279 1 63 33 95 87 101
170 9 130 -48 198 -203 243 -121 34 -156 50 -167 74 -29 63 34 112 130 102 69
-7 111 -36 159 -109 20 -32 38 -58 40 -58 2 0 3 46 3 103 -1 101 -1 102 -19
80 -22 -27 -43 -28 -99 -9 -54 19 -119 26 -162 17z"/>
<path d="M2840 5400 c0 -5 18 -10 40 -10 l40 0 -2 -287 -3 -288 -37 -3 c-21
-2 -38 -7 -38 -13 0 -5 80 -9 195 -9 123 0 195 4 195 10 0 6 -16 10 -35 10
l-35 0 0 300 0 300 -160 0 c-100 0 -160 -4 -160 -10z"/>
<path d="M3310 5400 c0 -5 12 -10 28 -10 26 0 31 -9 147 -300 l120 -300 75 0
76 0 95 298 95 297 32 3 c18 2 32 7 32 13 0 5 -40 9 -90 9 -53 0 -90 -4 -90
-10 0 -5 20 -10 44 -10 l44 0 -68 -211 c-38 -116 -70 -212 -72 -215 -2 -2 -36
85 -75 194 -39 108 -75 205 -78 215 -6 14 -1 17 34 17 23 0 41 5 41 10 0 6
-72 10 -195 10 -123 0 -195 -4 -195 -10z"/>
<path d="M5960 5400 c0 -5 13 -10 29 -10 l30 0 81 -252 c45 -139 88 -274 96
-300 l16 -48 87 0 88 0 59 195 c32 107 61 195 64 195 3 0 30 -88 60 -195 l55
-196 90 3 90 3 72 275 c40 151 75 285 78 298 4 17 13 22 35 22 17 0 30 5 30
10 0 6 -37 10 -90 10 -53 0 -90 -4 -90 -10 0 -5 21 -10 46 -10 33 0 45 -4 42
-12 -3 -7 -29 -105 -58 -217 -38 -143 -56 -198 -62 -185 -10 23 -108 392 -108
405 0 5 11 9 25 9 14 0 25 5 25 10 0 6 -63 10 -170 10 -107 0 -170 -4 -170
-10 0 -5 11 -10 25 -10 20 0 26 -7 36 -42 21 -75 15 -127 -30 -268 l-43 -135
-59 215 c-32 118 -59 218 -59 223 0 4 18 7 40 7 22 0 40 5 40 10 0 6 -73 10
-200 10 -127 0 -200 -4 -200 -10z"/>
</g>
</svg>
